HIERARCHY
ROOT Hips
{
	OFFSET 0.000000 0.000000 0.000000
	CHANNELS 6 Xposition Yposition Zposition Zrotation Yrotation Xrotation 
	JOINT LHipJoint
	{
		OFFSET 0.000000 0.000000 0.000000
		CHANNELS 3 Zrotation Yrotation Xrotation
		JOINT LeftUpLeg
		{
			OFFSET 1.363060 -1.794630 0.839290
			CHANNELS 3 Zrotation Yrotation Xrotation
			JOINT LeftLeg
			{
				OFFSET 2.448110 -6.726130 0.000000
				CHANNELS 3 Zrotation Yrotation Xrotation
				JOINT LeftFoot
				{
					OFFSET 2.562200 -7.039590 0.000000
					CHANNELS 3 Zrotation Yrotation Xrotation
					JOINT LeftToeBase
					{
						OFFSET 0.157640 -0.433110 2.322550
						CHANNELS 3 Zrotation Yrotation Xrotation
						End Site
						{
							OFFSET 0.000000 0.000000 0.000000
						}
					}
				}
			}
		}
	}
	JOINT RHipJoint
	{
		OFFSET 0.000000 0.000000 0.000000
		CHANNELS 3 Zrotation Yrotation Xrotation
		JOINT RightUpLeg
		{
			OFFSET -1.305520 -1.794630 0.839290
			CHANNELS 3 Zrotation Yrotation Xrotation
			JOINT RightLeg
			{
				OFFSET -2.542530 -6.985550 0.000000
				CHANNELS 3 Zrotation Yrotation Xrotation
				JOINT RightFoot
				{
					OFFSET -2.568260 -7.056230 0.000000
					CHANNELS 3 Zrotation Yrotation Xrotation
					JOINT RightToeBase
					{
						OFFSET -0.164730 -0.452590 2.363150
						CHANNELS 3 Zrotation Yrotation Xrotation
						End Site
						{
							OFFSET 0.000000 0.000000 0.000000
						}
					}
				}
			}
		}
	}
}
MOTION
Frames: 25
Frame Time: 0.008333
1.830344 17.341529 -0.684288 11.935054 84.661125 25.086082 -10.371264 2.000488 0.832432 -12.270188 5.377646 -8.966779 -2.909443 -1.144979 3.770685 0.082464 -1.036103 -5.572735 0.016700 0.000000 -33.205200 9.225200 -0.141039 1.824833 6.973782 1.119142 -40.092713 1.485483 -2.059047 32.089925 -1.068205 -3.998557 -2.859962 -0.799300 0.000000 -42.731201
2.018943 17.311898 -0.668773 14.907343 84.903143 27.996132 -10.353666 2.052150 0.675043 -12.350861 5.786913 -7.743478 -2.961462 -1.191006 3.125019 0.022840 -1.576890 -5.674213 0.007099 -0.000000 -33.860200 9.181334 -0.081455 2.015205 6.645468 1.097807 -40.168021 1.675713 -1.748237 28.472561 -1.051540 -4.040288 -2.107872 -0.920200 0.000000 -43.436900
2.207926 17.277381 -0.650970 18.511687 85.141700 31.526080 -10.308687 2.101882 0.518411 -12.450599 6.121918 -6.502446 -3.011441 -1.234142 2.543853 -0.028316 -2.069821 -5.809742 0.001599 0.000000 -34.499100 9.171069 -0.013192 2.196654 6.292620 0.984286 -40.206834 1.859102 -1.419419 24.856189 -1.011950 -3.985892 -1.366419 -1.023600 0.000000 -44.031100
2.397303 17.238239 -0.630926 22.714656 85.365786 35.635804 -10.230954 2.152396 0.364109 -12.568617 6.380779 -5.233615 -3.058786 -1.273884 2.017754 -0.070190 -2.503401 -5.978997 -0.000100 0.000000 -35.105300 9.197656 0.071503 2.362432 5.928265 0.770117 -40.213924 2.037153 -1.076770 21.286093 -0.939104 -3.772473 -0.691056 -1.086600 0.000000 -44.515900
2.587359 17.194887 -0.608812 27.408544 85.565075 40.221186 -10.120894 2.207832 0.215942 -12.699618 6.579446 -3.960430 -3.104529 -1.308494 1.561322 -0.104005 -2.889536 -6.191157 0.001700 0.000000 -35.672800 9.259538 0.177934 2.511980 5.572155 0.456602 -40.209719 2.211976 -0.724174 17.800508 -0.825406 -3.352238 -0.117442 -1.091200 0.000000 -44.933800
2.778083 17.147822 -0.584985 32.419550 85.721935 45.103592 -9.981147 2.270089 0.077013 -12.841829 6.705773 -2.663364 -3.146180 -1.338108 1.143448 -0.127508 -3.200837 -6.439761 0.006500 -0.000000 -36.193900 9.351557 0.312344 2.635527 5.242774 0.042134 -40.195724 2.385990 -0.366765 14.431073 -0.664892 -2.685166 0.338938 -1.023600 -0.000000 -45.353600
2.969706 17.097641 -0.559822 37.544175 85.828057 50.083478 -9.821150 2.340484 -0.047803 -12.989897 6.763243 -1.353157 -3.182925 -1.362389 0.759385 -0.140767 -3.434779 -6.725373 0.013300 -0.000000 -36.675600 9.463131 0.474903 2.731428 4.960995 -0.465805 -40.185885 2.561688 -0.008459 11.197403 -0.457398 -1.759759 0.687983 -0.881900 -0.000000 -45.872600
3.162881 17.044981 -0.533553 42.641833 85.890148 55.036771 -9.655959 2.420480 -0.156629 -13.129643 6.800655 -0.094237 -3.218433 -1.379103 0.460348 -0.149170 -3.648615 -7.062752 0.022800 0.000000 -37.157000 9.581829 0.658876 2.811541 4.742250 -1.043734 -40.207554 2.739654 0.349758 8.098996 -0.210981 -0.607217 0.964677 -0.678200 0.000001 -46.591100
3.357407 16.990474 -0.506657 47.538686 85.906965 59.785944 -9.493271 2.506138 -0.247167 -13.258116 6.787182 1.149513 -3.248174 -1.390700 0.196510 -0.149700 -3.801590 -7.429364 0.033300 0.000000 -37.651500 9.696411 0.862104 2.868909 4.596665 -1.678466 -40.253420 2.917805 0.703187 5.145847 0.064614 0.738432 1.203049 -0.424300 -0.000000 -47.565500
3.553509 16.934706 -0.479425 52.139652 85.889572 64.243935 -9.342416 2.595010 -0.319643 -13.365101 6.734973 2.361297 -3.272045 -1.397203 -0.025943 -0.144426 -3.909431 -7.816081 0.044300 0.000000 -38.196900 9.797342 1.077234 2.910037 4.527326 -2.338968 -40.331460 3.091107 1.048736 2.342268 0.352993 2.205738 1.439815 -0.139300 0.000001 -48.812100
3.751477 16.878318 -0.451916 56.423824 85.851709 68.403241 -9.211930 2.686430 -0.377232 -13.434736 6.681522 3.497752 -3.292548 -1.396714 -0.169233 -0.138397 -4.019796 -8.218377 0.057000 -0.000000 -38.843601 9.879321 1.294521 2.951084 4.518665 -2.973124 -40.448075 3.250485 1.385144 -0.318051 0.632873 3.685526 1.707189 0.153300 0.000000 -50.279400
3.951134 16.821757 -0.424446 60.310356 85.798918 72.180386 -9.103166 2.776033 -0.421428 -13.467227 6.596718 4.595478 -3.305682 -1.390841 -0.277189 -0.129525 -4.097223 -8.603613 0.068999 0.000000 -39.603500 9.938294 1.508964 2.988562 4.559392 -3.552716 -40.595717 3.389308 1.704366 -2.798690 0.889166 5.098191 2.004875 0.438900 -0.000000 -51.890800
4.152607 16.765583 -0.397000 63.816202 85.740157 75.600281 -9.019254 2.864137 -0.456515 -13.454251 6.507954 5.626148 -3.313589 -1.377239 -0.319949 -0.121952 -4.176180 -8.958723 0.081600 -0.000001 -40.503100 9.975088 1.711297 3.035485 4.618895 -4.030856 -40.775162 3.499956 2.002061 -5.078738 1.105803 6.335474 2.326704 0.696700 0.000000 -53.540400
4.355832 16.710256 -0.369641 66.923163 85.679836 78.643340 -8.959509 2.949619 -0.485932 -13.397194 6.412006 6.599428 -3.315560 -1.355091 -0.304434 -0.116328 -4.251456 -9.259335 0.093800 -0.000000 -41.541600 9.991042 1.895307 3.091969 4.677240 -4.388652 -40.986308 3.580527 2.270060 -7.103832 1.275249 7.331322 2.638424 0.911500 0.000000 -55.134600
4.560760 16.656279 -0.342459 69.609252 85.632693 81.293881 -8.913705 3.031504 -0.518386 -13.296636 6.301426 7.524891 -3.311827 -1.324865 -0.238938 -0.112837 -4.314304 -9.482610 0.104100 -0.000000 -42.706100 9.957675 2.046529 3.169364 4.691337 -4.514814 -42.202239 3.670011 2.315459 -6.834832 1.286188 8.100681 1.765016 1.070200 -0.000000 -56.597100
4.767356 16.604182 -0.315494 71.869597 85.595133 83.536155 -8.885692 3.110515 -0.553127 -13.157718 6.178710 8.411193 -3.301300 -1.284179 -0.122031 -0.111711 -4.358673 -9.609974 0.111501 0.000000 -43.979200 9.898727 2.162675 3.258762 4.672683 -4.486169 -43.755870 3.755270 2.257173 -5.584023 1.200966 8.595818 0.438991 1.163300 -0.000000 -57.862300
4.975710 16.554498 -0.288679 73.704499 85.562853 85.354812 -8.878935 3.187710 -0.586424 -12.985576 6.046263 9.269563 -3.282677 -1.230962 0.048248 -0.112622 -4.375613 -9.627132 0.114700 0.000001 -45.342100 9.838133 2.248134 3.343685 4.650065 -4.394117 -44.929878 3.810528 2.228158 -4.751532 1.119478 8.795576 -0.555978 1.187000 -0.000000 -58.869600
5.185952 16.507670 -0.261894 75.122860 85.539304 86.750044 -8.890701 3.263859 -0.617961 -12.783805 5.905148 10.107541 -3.255463 -1.164505 0.272395 -0.114922 -4.356720 -9.525416 0.112600 -0.000000 -46.779800 9.778176 2.303849 3.416245 4.634937 -4.258356 -45.678742 3.834852 2.234914 -4.375673 1.062364 8.732499 -1.211391 1.144700 -0.000000 -59.559300
5.398440 16.464106 -0.234807 76.157531 85.526217 87.749963 -8.917944 3.340134 -0.646831 -12.556305 5.756992 10.926790 -3.219573 -1.084438 0.553316 -0.117751 -4.295625 -9.302455 0.104600 -0.000000 -48.285700 9.720891 2.331774 3.471778 4.633060 -4.092668 -45.981485 3.829107 2.279926 -4.463817 1.035433 8.445303 -1.530799 1.046000 -0.000000 -59.871099
5.613534 16.424022 -0.207077 76.854949 85.524863 88.395897 -8.957943 3.417356 -0.671822 -12.306731 5.599999 11.731435 -3.174591 -0.990974 0.889072 -0.119748 -4.183788 -8.959599 0.090900 -0.000000 -49.864300 9.667387 2.334244 3.507386 4.644701 -3.904077 -45.838280 3.795413 2.360354 -4.989216 1.032305 7.973399 -1.527102 0.906100 -0.000000 -59.752600
5.831866 16.387595 -0.178194 77.300681 85.533533 88.777173 -9.007405 3.496905 -0.689849 -12.041721 5.429553 12.512677 -3.120905 -0.884742 1.283377 -0.119596 -4.016527 -8.503709 0.072500 -0.000000 -51.530900 9.619838 2.313763 3.526246 4.658374 -3.691656 -45.279990 3.736340 2.469393 -5.900058 1.038467 7.350091 -1.217795 0.741300 -0.000001 -59.164700
6.053884 16.354897 -0.148007 77.553914 85.556437 88.951831 -9.066933 3.578296 -0.700183 -11.757893 5.241303 13.274395 -3.057188 -0.766778 1.727212 -0.116014 -3.788949 -7.938301 0.050801 0.000000 -53.323900 9.576025 2.271366 3.529539 4.668888 -3.447681 -44.348527 3.656360 2.596046 -7.117341 1.036017 6.604079 -0.626202 0.567699 -0.000000 -58.100000
6.280353 16.325942 -0.115957 77.729109 85.596682 89.055908 -9.129331 3.662643 -0.701106 -11.461853 5.021405 13.990489 -2.984589 -0.638897 2.227767 -0.107916 -3.501250 -7.272805 0.028600 -0.000000 -55.282000 9.521157 2.200601 3.538136 4.638396 -3.095653 -43.651466 3.579957 2.627597 -7.485576 0.964280 5.784397 -0.383666 0.396100 -0.000000 -56.573900
6.511732 16.300808 -0.082090 77.893474 85.666410 89.171328 -9.192204 3.749435 -0.692957 -11.146013 4.760840 14.644670 -2.902229 -0.502680 2.784752 -0.094915 -3.158250 -6.509585 0.008800 0.000000 -57.460400 9.433987 2.094524 3.566281 4.551666 -2.555459 -43.811068 3.526974 2.450040 -5.807206 0.790070 4.940164 -1.139790 0.233200 -0.000000 -54.643300
6.748503 16.279578 -0.046353 78.128641 85.757184 89.380072 -9.265058 3.839797 -0.662209 -10.812016 4.451142 15.215721 -2.808243 -0.357763 3.410861 -0.076936 -2.767021 -5.647095 -0.005500 -0.000001 -59.904300 9.342894 1.967395 3.605102 4.442773 -1.927954 -43.920506 3.456994 2.246735 -4.001542 0.600157 4.020525 -1.773978 0.079900 -0.000000 -52.400400
